HIERARCHY
ROOT SpineBase
{
  OFFSET 0.000000 0.000000 0.000000
  CHANNELS 6 Xposition Yposition Zposition Zrotation Xrotation Yrotation
  JOINT SpineMid
  {
    OFFSET 0.000000 27.087283 0.000000
    CHANNELS 3 Zrotation Xrotation Yrotation
    JOINT SpineShoulder
    {
      OFFSET -0.077414 20.082706 -0.740575
      CHANNELS 3 Zrotation Xrotation Yrotation
      JOINT Neck
      {
        OFFSET -0.043352 6.626411 -0.547056
        CHANNELS 3 Zrotation Xrotation Yrotation
        JOINT Head
        {
          OFFSET -2.831493 12.863117 -1.038524
          CHANNELS 3 Zrotation Xrotation Yrotation
          End Site
          {
            OFFSET 0 0 0
          }
        }
      }
      JOINT ShoulderLeft
      {
        OFFSET -12.309177 -4.390182 7.975537
        CHANNELS 3 Zrotation Xrotation Yrotation
        JOINT ElbowLeft
        {
          OFFSET -2.452375 -17.782279 -10.638008
          CHANNELS 3 Zrotation Xrotation Yrotation
          JOINT WristLeft
          {
            OFFSET 6.081188 -8.235130 -12.930098
            CHANNELS 3 Zrotation Xrotation Yrotation
            JOINT HandLeft
            {
              OFFSET -3.958745 5.428988 -7.403122
              CHANNELS 3 Zrotation Xrotation Yrotation
              JOINT HandTipLeft
              {
                OFFSET -0.662980 0.116994 -1.959290
                CHANNELS 3 Zrotation Xrotation Yrotation
                End Site
                {
                  OFFSET 0 0 0
                }
              }
              JOINT ThumbLeft
              {
                OFFSET 0.976367 0.504083 -1.947646
                CHANNELS 3 Zrotation Xrotation Yrotation
                End Site
                {
                  OFFSET 0 0 0
                }
              }
            }
          }
        }
      }
      JOINT ShoulderRight
      {
        OFFSET 8.345302 -4.531091 -11.964489
        CHANNELS 3 Zrotation Xrotation Yrotation
        JOINT ElbowRight
        {
          OFFSET 3.406381 -17.730723 -5.470804
          CHANNELS 3 Zrotation Xrotation Yrotation
          JOINT WristRight
          {
            OFFSET -20.200516 -0.815864 -2.567473
            CHANNELS 3 Zrotation Xrotation Yrotation
            JOINT HandRight
            {
              OFFSET -2.463336 0.584702 -1.417954
              CHANNELS 3 Zrotation Xrotation Yrotation
              JOINT HandTipRight
              {
                OFFSET -3.131393 2.715521 0.063162
                CHANNELS 3 Zrotation Xrotation Yrotation
                End Site
                {
                  OFFSET 0 0 0
                }
              }
              JOINT ThumbRight
              {
                OFFSET -0.675391 -1.113536 -1.578941
                CHANNELS 3 Zrotation Xrotation Yrotation
                End Site
                {
                  OFFSET 0 0 0
                }
              }
            }
          }
        }
      }
    }
  }
  JOINT HipLeft
  {
    OFFSET -4.582495 -0.123159 1.223972
    CHANNELS 3 Zrotation Xrotation Yrotation
    JOINT KneeLeft
    {
      OFFSET 3.038284 -26.283546 6.393521
      CHANNELS 3 Zrotation Xrotation Yrotation
      JOINT AnkleLeft
      {
        OFFSET 14.192511 -36.300608 8.776909
        CHANNELS 3 Zrotation Xrotation Yrotation
        JOINT FootLeft
        {
          OFFSET 3.166674 -6.279726 -5.501063
          CHANNELS 3 Zrotation Xrotation Yrotation
          End Site
          {
            OFFSET 0 0 0
          }
        }
      }
    }
  }
  JOINT HipRight
  {
    OFFSET 4.051778 1.053873 -7.611741
    CHANNELS 3 Zrotation Xrotation Yrotation
    JOINT KneeRight
    {
      OFFSET 8.920891 -31.674023 7.516474
      CHANNELS 3 Zrotation Xrotation Yrotation
      JOINT AnkleRight
      {
        OFFSET 4.838088 -29.058042 10.594825
        CHANNELS 3 Zrotation Xrotation Yrotation
        JOINT FootRight
        {
          OFFSET -5.146726 -4.048002 -7.598041
          CHANNELS 3 Zrotation Xrotation Yrotation
          End Site
          {
            OFFSET 0 0 0
          }
        }
      }
    }
  }
}
MOTION
Frames: 7
Frame Time: 0.033333
30.591989 70.615905 354.251005 0.414976 -1.513006 47.657534 0.035830 0.165225 -47.644929 0.071507 0.008061 0.015832 1.242875 -2.640264 -0.746553 0.000000 0.000000 0.000000 -13.143193 19.844338 6.671863 -3.243367 12.948310 33.058327 -53.499962 -36.795848 -108.514071 -6.977133 31.248519 -29.826861 0.000000 0.000000 0.000000 0.000000 0.000000 0.000000 -20.265758 19.435577 13.062659 7.422796 -18.795996 -9.136610 9.186844 3.930903 23.938550 28.680757 -19.569574 -20.696743 0.000000 0.000000 0.000000 0.000000 0.000000 0.000000 0.955868 2.974296 -47.805620 -0.780727 -1.484563 -0.474222 -26.942463 4.812958 32.288054 0.000000 0.000000 0.000000 -1.353474 2.606977 -48.377861 4.241641 2.506165 1.681590 2.211722 -10.484603 3.503953 0.000000 0.000000 0.000000
30.561844 70.600817 354.212754 0.381329 -1.530726 48.010137 -0.009606 0.107880 -47.998880 0.050475 -0.022093 0.012947 1.156938 -2.398396 -0.732598 0.000000 0.000000 0.000000 -12.315476 18.607392 6.228046 -1.198931 16.520823 30.772392 -49.228822 -16.081458 -119.381095 9.836415 29.906866 -22.329370 0.000000 0.000000 0.000000 0.000000 0.000000 0.000000 -20.024709 19.597595 13.016835 7.394532 -18.854755 -8.973027 10.437223 2.824422 20.769497 25.900408 -18.144046 -20.711345 0.000000 0.000000 0.000000 0.000000 0.000000 0.000000 1.298732 2.394298 -48.037705 -1.854018 -1.446446 -0.780151 -22.369836 4.885307 27.793129 0.000000 0.000000 0.000000 -1.141698 2.804515 -48.672637 4.584421 1.888196 1.676976 3.311590 -12.628819 4.763367 0.000000 0.000000 0.000000
30.550972 70.580422 354.151000 0.373812 -1.536897 48.412904 -0.069085 0.064102 -48.402203 0.031429 -0.051697 0.010590 1.014966 -2.193634 -0.727908 0.000000 0.000000 0.000000 -10.850651 17.847785 5.307765 -0.229824 20.602528 29.440944 -53.390686 -9.116501 -131.178214 11.058551 35.581388 -15.982962 0.000000 0.000000 0.000000 0.000000 0.000000 0.000000 -20.200317 19.777749 13.185898 7.743046 -19.010996 -9.159820 9.916071 2.751752 19.944033 24.837464 -17.669055 -20.469474 0.000000 0.000000 0.000000 0.000000 0.000000 0.000000 1.110879 2.596108 -48.510063 -1.632287 -1.564599 -0.778794 -20.491543 5.876432 26.349279 0.000000 0.000000 0.000000 -1.608979 2.228533 -49.258767 4.449468 3.281753 1.915052 3.986472 -13.674849 3.895867 0.000000 0.000000 0.000000
30.529015 70.544554 354.096796 0.360843 -1.533291 48.663261 -0.083827 0.045106 -48.653129 0.029607 -0.056346 0.009998 0.725418 -2.214181 -0.763084 0.000000 0.000000 0.000000 -10.821104 18.593139 5.248801 -0.680398 18.582158 29.465499 -62.080879 -5.971730 -144.623127 -3.390986 43.855098 -2.805153 0.000000 0.000000 0.000000 0.000000 0.000000 0.000000 -20.358973 19.893112 13.312067 8.108709 -19.196395 -9.265951 9.337470 3.229555 21.594836 24.809765 -17.419118 -20.687595 0.000000 0.000000 0.000000 0.000000 0.000000 0.000000 0.920694 2.633003 -48.810914 -1.212887 -1.343405 -0.609714 -22.716370 7.763205 29.403346 0.000000 0.000000 0.000000 -1.246331 2.550185 -49.384334 4.768688 2.246396 1.823644 7.007196 -18.583154 7.235027 0.000000 0.000000 0.000000
30.506788 70.505063 354.054643 0.355907 -1.541005 48.848436 -0.072724 0.049973 -48.838458 0.035828 -0.048557 0.010416 0.338349 -2.345769 -0.822320 0.000000 0.000000 0.000000 -10.510257 18.791997 5.010739 0.007654 19.402335 28.681568 -75.967355 -12.250835 -149.894673 -20.111042 45.074956 1.532810 0.000000 0.000000 0.000000 0.000000 0.000000 0.000000 -20.469240 19.822397 13.342996 8.552050 -19.265450 -9.062845 8.755928 3.758556 23.432207 26.682347 -13.660299 -17.941737 0.000000 0.000000 0.000000 0.000000 0.000000 0.000000 0.780038 2.529877 -49.019354 -0.795388 -0.969502 -0.397003 -21.810567 5.850336 26.869095 0.000000 0.000000 0.000000 -1.171642 2.405057 -49.553916 4.822007 2.469513 1.894999 10.947376 -24.226808 10.428316 0.000000 0.000000 0.000000
30.477781 70.468030 354.030570 0.349226 -1.539532 48.900656 -0.014692 0.079482 -48.890613 0.059614 -0.019697 0.012800 -0.120177 -2.779915 -0.936747 0.000000 0.000000 0.000000 -10.428010 18.793907 4.907330 -1.494959 18.589531 30.148726 -70.531196 -9.120669 -149.084378 -12.778254 43.631448 -3.708835 0.000000 0.000000 0.000000 0.000000 0.000000 0.000000 -20.525946 19.768997 13.335419 8.924575 -19.444882 -8.596151 8.088017 4.092805 24.001378 29.580693 -8.834694 -13.879788 0.000000 0.000000 0.000000 0.000000 0.000000 0.000000 0.930688 1.275166 -48.906322 -1.372090 0.056088 -0.310655 -17.948694 -0.472473 18.625306 0.000000 0.000000 0.000000 -1.200473 2.452434 -49.616858 5.062746 2.494928 1.971811 13.345201 -27.585034 13.857614 0.000000 0.000000 0.000000
30.432007 70.421055 354.026541 0.322458 -1.606967 48.878644 0.033173 0.089001 -48.869403 0.070403 -0.016695 0.013367 -0.500411 -2.834269 -0.988631 0.000000 0.000000 0.000000 -10.340561 18.863932 4.839619 -1.630291 18.463934 30.193417 -71.092792 -6.977617 -151.890758 -12.038279 43.717128 -2.542534 0.000000 0.000000 0.000000 0.000000 0.000000 0.000000 -20.727340 19.644504 13.393479 9.431123 -19.458854 -8.186269 7.360143 4.552902 25.115652 30.223641 -4.912219 -11.445597 0.000000 0.000000 0.000000 0.000000 0.000000 0.000000 0.497030 2.514066 -49.123372 1.246366 -0.415440 0.259133 -23.867745 -0.556065 23.094936 0.000000 0.000000 0.000000 -0.711508 2.697696 -49.448852 4.874027 1.542662 1.745855 24.902731 -36.959673 23.358578 0.000000 0.000000 0.000000
